<svg xmlns="http://www.w3.org/2000/svg" version="1.1" xmlns:xlink="http://www.w3.org/1999/xlink" xmlns:svgjs="http://svgjs.dev/svgjs" width="1440" height="560" preserveAspectRatio="none" viewBox="0 0 1440 560">
    <g mask="url(&quot;#SvgjsMask1003&quot;)" fill="none">
        <path d="M140 87.21C79.4 80.25 38.16 143.77 0 120C-31.84 100.16 -32.31 27.69 0 0C37.69 -32.31 70 0 140 0C210 0 210 0 280 0C350 0 350 0 420 0C482.5 0 484.32 -5.2 545 0C554.32 0.8 550.68 10.58 560 12C628.18 22.41 630.64 27.06 700 23.66C753.14 21.06 752.18 8.93 805 0C822.18 -2.9 822.5 0 840 0C910 0 910 0 980 0C1050 0 1050 0 1120 0C1190 0 1190 0 1260 0C1330 0 1330 0 1400 0C1470 0 1505 -35 1540 0C1575 35 1540 70 1540 140C1540 189.78 1549.91 193.04 1540 239.56C1534.99 263.04 1510.16 256.8 1510.16 280C1510.16 337.68 1527.02 340.43 1540 401.33C1541.94 410.43 1540 410.66 1540 420C1540 427 1543.82 428.26 1540 434C1497.16 498.26 1500.61 511.45 1446.67 560C1430.61 574.45 1423.34 560 1400 560C1368.5 560 1344.69 581.66 1337 560C1319.85 511.66 1357.74 488.53 1350.32 420C1342.58 348.53 1332.55 348.42 1306.67 280C1287.39 229.01 1300.36 195.79 1260 181.18C1207.03 162 1189.68 195.47 1120 212.41C1049.68 229.51 1047.55 225.16 980 249.27C952.85 258.96 930.59 264.96 930.59 280C930.59 294.81 957.64 291.23 980 308.97C1045.9 361.23 1053.27 358.46 1107.11 420C1123.27 438.47 1106.71 448.03 1120 469C1151.07 518.03 1195.83 532.26 1195.83 560C1195.83 577.76 1157.91 560 1120 560C1050 560 1050 560 980 560C910 560 910 560 840 560C810 560 780 576.58 780 560C780 528.85 814.18 514.15 840 464.55C850.62 444.15 852.89 441.62 852.89 420C852.89 407.09 851.93 395.5 840 395.5C796.48 395.5 790.16 405.29 742 420C720.16 426.67 711.21 419.96 700 438.26C668.34 489.96 696.39 525.1 656.25 560C626.39 585.97 608.13 560 560 560C490 560 490 560 420 560C350 560 350 560 280 560C257.36 560 255.98 566.44 234.71 560C185.98 545.25 182.46 517.63 140 517.63C117.41 517.63 128.8 552.68 104.62 560C58.8 573.87 22.37 589.94 0 560C-29.94 519.94 0 490 0 420C0 350 0 350 0 280C0 218.18 -31.64 172.18 0 156.36C38.36 137.18 82.67 215.38 140 210C169.8 207.2 174.26 173.97 174.26 140C174.26 112.57 166.53 90.25 140 87.21" stroke="rgba(206, 202, 216, 0.25)" stroke-width="2"></path>
        <path d="M280 272.53C269.82 272.53 261.85 270.04 259.26 280C242.67 343.77 235.52 352.08 241.64 420C245.89 467.24 252.05 510.32 280 510.32C316.39 510.32 366.85 471.35 370.32 420C374.63 356.19 336.29 346.5 295.56 280C291.13 272.77 287.97 272.53 280 272.53" stroke="rgba(206, 202, 216, 0.25)" stroke-width="2"></path>
        <path d="M560 241.82C535.35 244.63 521.82 261.52 521.82 280C521.82 297.41 538.35 300.51 560 313.6C627.44 354.36 649.55 397.51 700 387.69C735.83 380.71 732.56 327.72 732.56 280C732.56 263.73 718.44 263.79 700 259.71C632.16 244.7 624.44 234.48 560 241.82" stroke="rgba(206, 202, 216, 0.25)" stroke-width="2"></path>
        <path d="M140 29.84C84.65 10.07 48.38 74.75 0 64.44C-21.62 59.83 -22.06 10.16 0 0C47.94 -22.06 70 0 140 0C210 0 210 0 280 0C350 0 350 0 420 0C420 0 420 0 420 0C490 56 482.68 91.85 560 112C622.68 128.33 629.58 74.72 700 72.96C769.58 71.22 788.15 125.27 840 105C881.48 88.79 848.04 28.97 886.67 0C918.04 -23.53 933.34 0 980 0C1050 0 1050 0 1120 0C1148.38 0 1176.76 -15.07 1176.76 0C1176.76 26.93 1146.33 40.79 1120 84C1103.67 110.79 1114.27 120 1091.43 140C1044.27 181.3 1035.41 172.79 980 206.59C920.67 242.79 917.69 239.63 861.96 280C847.69 290.33 851.57 308 840 308C827.57 308 829.47 290.97 813.95 280C759.47 241.47 760.49 237.03 700 208.99C633.51 178.17 620.55 145.59 560 162.27C491.69 181.09 495.68 217.28 442.27 280C425.68 299.48 432.1 326.67 420 326.67C407.36 326.67 413.89 295.2 392.78 280C343.89 244.8 328.26 263.14 280 225.87C237.62 193.14 243.37 184.64 211.49 140C173.37 86.63 190.4 47.85 140 29.84" stroke="rgba(206, 202, 216, 0.25)" stroke-width="2"></path>
        <path d="M1400 90.17C1349.54 53.69 1311.33 26.5 1311.33 0C1311.33 -18.58 1355.66 0 1400 0C1466.5 0 1476.54 -12.55 1533 0C1546.54 3.01 1539.21 15.25 1540 31.11C1542.71 85.25 1540 85.56 1540 140C1540 150.89 1546.05 161.78 1540 161.78C1528.55 161.78 1523.33 149.37 1505 140C1453.33 113.57 1446.37 123.69 1400 90.17" stroke="rgba(206, 202, 216, 0.25)" stroke-width="2"></path>
        <path d="M0 201.82C44.46 201.82 68.5 239.2 133.78 280C138.5 282.95 137.8 284.18 140 289.33C167.76 354.18 193.7 360.33 193.7 420C193.7 451.45 165.04 444.1 140 471.58C101.26 514.1 110.62 531.92 66.15 560C40.62 576.13 12.32 580.76 0 560C-20.76 525.02 -13.74 497.23 0 448.52C6 427.23 39.49 434.26 39.49 420C39.49 405.74 6 412.77 0 391.48C-13.74 342.77 0 335.74 0 280C0 240.91 -22.43 201.82 0 201.82" stroke="rgba(206, 202, 216, 0.25)" stroke-width="2"></path>
        <path d="M1355.28 280C1355.28 242.58 1376.24 206.82 1400 206.82C1425 206.82 1452.79 242.36 1452.79 280C1452.79 322.46 1424.86 367.03 1400 367.03C1376.1 367.03 1355.28 322.69 1355.28 280" stroke="rgba(206, 202, 216, 0.25)" stroke-width="2"></path>
        <path d="M492.59 420C518.44 393.18 527.35 383.6 560 383.6C587.05 383.6 605.53 392.54 612 420C626.31 480.74 621.62 505.99 601.56 560C595.62 575.99 580.78 560 560 560C490 560 490 560 420 560C404.44 560 388.89 566.44 388.89 560C388.89 550.89 406.95 546.5 420 528.89C458.8 476.5 448.44 465.82 492.59 420" stroke="rgba(206, 202, 216, 0.25)" stroke-width="2"></path>
        <path d="M898.95 420C898.95 380.17 939.47 349.2 980 349.2C1020.53 349.2 1061.05 380.17 1061.05 420C1061.05 470.57 1020.53 530 980 530C939.47 530 898.95 470.57 898.95 420" stroke="rgba(206, 202, 216, 0.25)" stroke-width="2"></path>
        <path d="M35 0C35 2.26 14.04 8.89 0 8.89C-3.46 8.89 -3.54 0.9 0 0C13.96 -3.54 35 -2.19 35 0" stroke="rgba(206, 202, 216, 0.25)" stroke-width="2"></path>
        <path d="M248.72 140C233.55 73.99 226.73 54.12 238.82 0C242.37 -15.88 259.41 0 280 0C291.66 0 297.05 -8.97 303.33 0C346.05 61.03 385.01 86.19 378 140C373.34 175.79 323.82 179.2 280 179.2C259.18 179.2 254.14 163.59 248.72 140" stroke="rgba(206, 202, 216, 0.25)" stroke-width="2"></path>
        <path d="M653.33 140C653.33 131.01 676.66 122.25 700 122.25C723.34 122.25 746.67 131.01 746.67 140C746.67 149.02 723.34 158.26 700 158.26C676.66 158.26 653.33 149.02 653.33 140" stroke="rgba(206, 202, 216, 0.25)" stroke-width="2"></path>
        <path d="M918.75 140C905.84 83.99 918.03 55.29 942.22 0C948.66 -14.71 961.11 0 980 0C1024.08 0 1060.69 -26.12 1068.15 0C1080.69 43.88 1053.52 77.67 1020 140C1009.45 159.62 1001 163.9 980 163.9C950.37 163.9 924.73 165.94 918.75 140" stroke="rgba(206, 202, 216, 0.25)" stroke-width="2"></path>
        <path d="M1400 30.85C1383.3 30.85 1369.67 9.07 1369.67 0C1369.67 -6.36 1384.84 0 1400 0C1422.75 0 1445.5 -6.99 1445.5 0C1445.5 8.44 1421.22 30.85 1400 30.85" stroke="rgba(206, 202, 216, 0.25)" stroke-width="2"></path>
        <path d="M0 247.27C18.61 247.27 56 261.31 56 280C56 301.01 17.07 326.67 0 326.67C-10.93 326.67 0 303.34 0 280C0 263.63 -9.39 247.27 0 247.27" stroke="rgba(206, 202, 216, 0.25)" stroke-width="2"></path>
        <path d="M129.23 420C129.23 414.21 135.55 406 140 406C143.81 406 145.75 413.61 145.75 420C145.75 423.37 143.28 425.53 140 425.53C135.02 425.53 129.23 423.97 129.23 420" stroke="rgba(206, 202, 216, 0.25)" stroke-width="2"></path>
        <path d="M945 420C945 402.8 962.5 389.43 980 389.43C997.5 389.43 1015 402.8 1015 420C1015 441.84 997.5 467.5 980 467.5C962.5 467.5 945 441.84 945 420" stroke="rgba(206, 202, 216, 0.25)" stroke-width="2"></path>
        <path d="M0 513.33C7.44 513.33 27.69 544.55 27.69 560C27.69 567.88 5.16 568.69 0 560C-8.69 545.35 -6.4 513.33 0 513.33" stroke="rgba(206, 202, 216, 0.25)" stroke-width="2"></path>
    </g>
    <defs>
        <mask id="SvgjsMask1003">
            <rect width="1440" height="560" fill="#ffffff"></rect>
        </mask>
    </defs>
</svg>